<?xml version="1.0" encoding="utf-8"?>
<!-- Generator: Adobe Illustrator 22.0.1, SVG Export Plug-In . SVG Version: 6.00 Build 0)  -->
<svg version="1.1" id="Capa_1" xmlns="http://www.w3.org/2000/svg" xmlns:xlink="http://www.w3.org/1999/xlink" x="0px" y="0px"
	 viewBox="0 0 80 30" style="enable-background:new 0 0 80 30;" xml:space="preserve">
<style type="text/css">
	.st0{fill:#FFFFFF;}
</style>
<g>
	<path class="st0" d="M40.4,5.1c-0.2,0-0.4,0.1-0.5,0.2s-0.2,0.3-0.2,0.5v1.9c0,0.4,0.2,0.7,0.7,0.7c0.1,0,0.2,0,0.3,0
		s0.1,0,0.2-0.1S41,8.1,41,8.1C41.1,8,41.1,8,41.2,7.9l0.5,0.6c-0.2,0.2-0.4,0.3-0.6,0.4S40.7,9,40.4,9c-0.5,0-0.8-0.1-1.1-0.4
		s-0.4-0.6-0.4-1V5.7c0-0.2,0-0.4,0.1-0.6s0.2-0.3,0.3-0.4s0.3-0.2,0.5-0.3c0.2-0.1,0.4-0.1,0.6-0.1c0.2,0,0.3,0,0.4,0
		c0.1,0,0.2,0.1,0.4,0.1c0.1,0.1,0.2,0.1,0.3,0.2s0.2,0.2,0.3,0.3l-0.5,0.5c-0.1-0.1-0.2-0.2-0.3-0.3C40.8,5.1,40.6,5.1,40.4,5.1"/>
	<polygon class="st0" points="43.6,7 43.6,8.2 45.1,8.2 45.1,9 42.8,9 42.8,4.4 45,4.4 45,5.1 43.6,5.1 43.6,6.3 44.8,6.3 44.8,7 	
		"/>
	<polygon class="st0" points="48.7,4.4 49.5,4.4 49.5,9 48.2,9 47,5.3 47,9 46.2,9 46.2,4.4 47.4,4.4 48.7,8.1 	"/>
	<polygon class="st0" points="50.4,5.1 50.4,4.4 53.5,4.4 53.5,5.1 52.3,5.1 52.3,9 51.5,9 51.5,5.1 	"/>
	<path class="st0" d="M56.9,6.6c-0.1,0.2-0.3,0.3-0.5,0.4l0.9,2h-0.9l-0.9-1.9h-0.4V9h-0.8V4.4h1.5c0.4,0,0.7,0.1,0.9,0.3
		C56.9,4.9,57,5.2,57,5.6V6C57.1,6.3,57.1,6.5,56.9,6.6 M55.2,6.4h0.7c0.1,0,0.2,0,0.3-0.1s0.1-0.2,0.1-0.3V5.6c0-0.1,0-0.2-0.1-0.3
		c-0.1-0.1-0.2-0.1-0.3-0.1h-0.7V6.4L55.2,6.4z"/>
	<path class="st0" d="M60.4,4.4c0.2,0.1,0.4,0.2,0.5,0.3C61,4.8,61.1,5,61.2,5.1c0.1,0.2,0.1,0.4,0.1,0.6v1.9c0,0.2,0,0.4-0.1,0.6
		S61,8.5,60.9,8.6s-0.3,0.2-0.5,0.3S60,9,59.8,9h-0.1c-0.2,0-0.5,0-0.7,0c-0.2-0.1-0.4-0.1-0.5-0.3c-0.1-0.1-0.3-0.3-0.3-0.4
		c-0.1-0.2-0.1-0.4-0.1-0.6v-2c0-0.2,0-0.4,0.1-0.6s0.2-0.3,0.3-0.4s0.3-0.2,0.5-0.3c0.2-0.1,0.4-0.1,0.6-0.1h0.1
		C60,4.3,60.2,4.4,60.4,4.4 M60.5,5.7c0-0.2-0.1-0.4-0.2-0.5C60.2,5.1,60,5,59.8,5h-0.1c-0.2,0-0.4,0.1-0.5,0.2S59,5.5,59,5.7v1.9
		c0,0.2,0.1,0.4,0.2,0.5c0.1,0.1,0.3,0.2,0.5,0.2h0.1c0.2,0,0.4-0.1,0.5-0.2c0.1-0.1,0.2-0.3,0.2-0.5V5.7L60.5,5.7z"/>
	<path class="st0" d="M40.2,12.3c0.5,0,0.8,0.1,1.1,0.4c0.3,0.2,0.4,0.6,0.4,1v1.9c0,0.2,0,0.4-0.1,0.6c-0.1,0.2-0.2,0.3-0.3,0.4
		s-0.3,0.2-0.5,0.2c-0.2,0.1-0.4,0.1-0.6,0.1H39v-4.6L40.2,12.3L40.2,12.3z M41.2,13.6c0-0.2,0-0.3-0.1-0.4C41,13.1,41,13,40.9,12.9
		s-0.2-0.1-0.3-0.2c-0.1,0-0.2,0-0.4,0h-0.7v3.6h0.7c0.3,0,0.6-0.1,0.7-0.2c0.2-0.2,0.3-0.4,0.3-0.7V13.6L41.2,13.6z"/>
	<polygon class="st0" points="43.5,14.7 43.5,16.4 45.2,16.4 45.2,16.8 43,16.8 43,12.3 45,12.3 45,12.7 43.5,12.7 43.5,14.3 
		44.8,14.3 44.8,14.7 	"/>
	<path class="st0" d="M47.7,12.9c-0.2,0-0.4,0.1-0.5,0.2c-0.1,0.1-0.2,0.3-0.2,0.5v1.9c0,0.4,0.2,0.7,0.7,0.7c0.1,0,0.2,0,0.3,0
		s0.1,0,0.2-0.1c0.1,0,0.1-0.1,0.2-0.1c0.1-0.1,0.1-0.1,0.2-0.2l0.5,0.6c-0.2,0.2-0.4,0.3-0.6,0.4c-0.2,0.1-0.4,0.1-0.7,0.1
		c-0.5,0-0.8-0.1-1.1-0.4c-0.3-0.2-0.4-0.6-0.4-1v-1.9c0-0.2,0-0.4,0.1-0.6s0.2-0.3,0.3-0.4c0.1-0.1,0.3-0.2,0.5-0.3
		s0.4-0.1,0.6-0.1c0.2,0,0.3,0,0.4,0c0.1,0,0.2,0.1,0.4,0.1c0.1,0.1,0.2,0.1,0.3,0.2c0.1,0.1,0.2,0.2,0.3,0.3l-0.5,0.5
		c-0.1-0.1-0.2-0.2-0.3-0.3C48.1,13,47.9,12.9,47.7,12.9"/>
	<path class="st0" d="M52.4,12.3h0.8v3.2c0,0.2,0,0.4-0.1,0.6s-0.2,0.3-0.3,0.4s-0.3,0.2-0.5,0.3c-0.2,0.1-0.4,0.1-0.7,0.1
		s-0.5,0-0.7-0.1s-0.4-0.1-0.5-0.3c-0.1-0.1-0.2-0.3-0.3-0.5C50,15.8,50,15.6,50,15.4v-3.2h0.8v3.2c0,0.2,0.1,0.4,0.2,0.5
		c0.1,0.1,0.3,0.2,0.6,0.2s0.4-0.1,0.6-0.2c0.1-0.1,0.2-0.3,0.2-0.5L52.4,12.3L52.4,12.3z"/>
	<polygon class="st0" points="55.4,12.3 55.4,16.1 57.1,16.1 57.1,16.8 54.5,16.8 54.5,12.3 	"/>
	<polygon class="st0" points="57.1,13 57.1,12.3 60.2,12.3 60.2,13 59.1,13 59.1,16.8 58.3,16.8 58.3,13 	"/>
	<path class="st0" d="M63.5,12.3h0.8v3.2c0,0.2,0,0.4-0.1,0.6s-0.2,0.3-0.3,0.4s-0.3,0.2-0.5,0.3c-0.2,0.1-0.4,0.1-0.7,0.1
		c-0.2,0-0.5,0-0.7-0.1s-0.4-0.1-0.5-0.3c-0.1-0.1-0.2-0.3-0.3-0.5c-0.1-0.2-0.1-0.4-0.1-0.6v-3.2H62v3.2c0,0.2,0.1,0.4,0.2,0.5
		c0.1,0.1,0.3,0.2,0.6,0.2s0.4-0.1,0.6-0.2s0.2-0.3,0.2-0.5L63.5,12.3L63.5,12.3z"/>
	<path class="st0" d="M68.2,14.5c-0.1,0.2-0.3,0.3-0.5,0.4l0.9,1.9h-0.8l-1-1.8h-0.4v1.9h-0.8v-4.6h1.5c0.4,0,0.7,0.1,0.9,0.3
		c0.2,0.2,0.3,0.5,0.3,0.9v0.4C68.4,14.1,68.3,14.3,68.2,14.5 M66.4,14.2h0.7c0.1,0,0.2,0,0.3-0.1c0.1-0.1,0.1-0.2,0.1-0.3v-0.4
		c0-0.1,0-0.2-0.1-0.3c0-0.1-0.1-0.1-0.3-0.1h-0.7V14.2L66.4,14.2z"/>
	<path class="st0" d="M71.4,12.2l1.2,4.6h-0.8l-0.3-1.1h-1.2L70,16.8h-0.9l1.2-4.6C70.3,12.2,71.4,12.2,71.4,12.2z M71.3,15.1
		l-0.4-2l-0.4,2H71.3z"/>
	<path class="st0" d="M40.3,20.1c0.5,0,0.8,0.1,1.1,0.3c0.3,0.2,0.4,0.6,0.4,1v1.8c0,0.5-0.1,0.9-0.4,1.1c-0.3,0.2-0.7,0.3-1.2,0.3
		H39V20L40.3,20.1L40.3,20.1z M41.1,21.5c0-0.2-0.1-0.4-0.2-0.5c-0.1-0.1-0.3-0.2-0.5-0.2h-0.5V24h0.5c0.2,0,0.4-0.1,0.6-0.2
		c0.1-0.1,0.2-0.3,0.2-0.5L41.1,21.5L41.1,21.5z"/>
	<rect x="43.2" y="20.1" class="st0" width="0.8" height="4.6"/>
	<path class="st0" d="M46.9,22.2h1.5v2c-0.2,0.2-0.4,0.3-0.7,0.4c-0.2,0.1-0.5,0.1-0.8,0.1c-0.2,0-0.4,0-0.6-0.1s-0.4-0.1-0.5-0.3
		c-0.1-0.1-0.2-0.3-0.3-0.4c-0.1-0.2-0.1-0.4-0.1-0.6v-1.9c0-0.2,0-0.4,0.1-0.6s0.2-0.3,0.3-0.4s0.3-0.2,0.5-0.3
		c0.2-0.1,0.4-0.1,0.6-0.1c0.3,0,0.6,0.1,0.8,0.2s0.4,0.3,0.6,0.5l-0.5,0.6c-0.1-0.1-0.2-0.2-0.4-0.3s-0.3-0.1-0.5-0.1
		s-0.4,0.1-0.5,0.2s-0.2,0.3-0.2,0.5v1.9c0,0.2,0.1,0.4,0.2,0.5c0.2,0,0.4,0,0.6,0c0.1,0,0.2,0,0.3,0s0.2-0.1,0.3-0.2v-1h-0.7
		L46.9,22.2L46.9,22.2z"/>
	<rect x="49.9" y="20.1" class="st0" width="0.8" height="4.6"/>
	<polygon class="st0" points="51.9,20.9 51.9,20.1 55,20.1 55,20.9 53.8,20.9 53.8,24.7 53,24.7 53,20.9 	"/>
	<path class="st0" d="M57.5,20.1l1.2,4.6h-0.8l-0.3-1.1h-1.2l-0.3,1.1h-0.9l1.2-4.6H57.5z M57.4,22.9L57,21l-0.4,2h0.8
		C57.4,23,57.4,22.9,57.4,22.9z"/>
	<polygon class="st0" points="60.4,20.1 60.4,24 62.1,24 62.1,24.7 59.6,24.7 59.6,20.1 	"/>
	<path class="st0" d="M31.1,14.9h-9c-0.2,0-0.3-0.1-0.3-0.3s0.1-0.3,0.3-0.3h9c0.2,0,0.3,0.1,0.3,0.3S31.3,14.9,31.1,14.9"/>
	<path class="st0" d="M30.2,20.9h-0.1c-0.2-0.1-0.2-0.3-0.2-0.4l1.9-4.6c0.1-0.2,0.3-0.2,0.4-0.2c0.2,0.1,0.2,0.3,0.2,0.4l-1.9,4.6
		C30.4,20.8,30.3,20.9,30.2,20.9"/>
	<path class="st0" d="M28.5,21.2c-0.1,0-0.2,0-0.2-0.1l-6.4-6.4c-0.1-0.1-0.1-0.3,0-0.5c0.1-0.1,0.3-0.1,0.5,0l6.4,6.4
		c0.1,0.1,0.1,0.3,0,0.5C28.6,21.2,28.6,21.2,28.5,21.2"/>
	<path class="st0" d="M23.5,24.8c-0.1,0-0.3-0.1-0.3-0.2c-0.1-0.2,0-0.4,0.2-0.4l4.6-1.9c0.2-0.1,0.4,0,0.4,0.2
		c0.1,0.2,0,0.4-0.2,0.4l-4.6,1.9H23.5"/>
	<path class="st0" d="M22.1,23.9c-0.2,0-0.3-0.1-0.3-0.3v-9c0-0.2,0.1-0.3,0.3-0.3s0.3,0.1,0.3,0.3v9C22.4,23.8,22.3,23.9,22.1,23.9
		"/>
	<path class="st0" d="M20.7,24.8h-0.1L16,22.9c-0.2-0.1-0.2-0.3-0.2-0.4c0.1-0.2,0.3-0.2,0.4-0.2l4.6,1.9c0.2,0.1,0.2,0.3,0.2,0.4
		C20.9,24.8,20.8,24.8,20.7,24.8"/>
	<path class="st0" d="M22.1,14.9h-9c-0.2,0-0.3-0.1-0.3-0.3s0.1-0.3,0.3-0.3h9c0.2,0,0.3,0.1,0.3,0.3S22.3,14.9,22.1,14.9"/>
	<path class="st0" d="M12.1,13.4H12c-0.2-0.1-0.2-0.3-0.2-0.4l1.9-4.6c0.1-0.2,0.3-0.2,0.4-0.2c0.2,0.1,0.2,0.3,0.2,0.4l-1.9,4.6
		C12.4,13.4,12.3,13.4,12.1,13.4"/>
	<path class="st0" d="M22.1,14.9c-0.1,0-0.2,0-0.2-0.1l-6.4-6.4c-0.1-0.1-0.1-0.3,0-0.5s0.3-0.1,0.5,0l6.4,6.4
		c0.1,0.1,0.1,0.3,0,0.5C22.3,14.8,22.2,14.9,22.1,14.9"/>
	<path class="st0" d="M16,6.8c-0.1,0-0.3-0.1-0.3-0.2c-0.1-0.2,0-0.4,0.2-0.4l4.6-1.9c0.2-0.1,0.4,0,0.4,0.2c0.1,0.2,0,0.4-0.2,0.4
		L16,6.8C16.1,6.8,16.1,6.8,16,6.8"/>
	<path class="st0" d="M22.1,14.9c-0.2,0-0.3-0.1-0.3-0.3v-9c0-0.2,0.1-0.3,0.3-0.3s0.3,0.1,0.3,0.3v9C22.4,14.7,22.3,14.9,22.1,14.9
		"/>
	<path class="st0" d="M32.1,13.4c-0.1,0-0.3-0.1-0.3-0.2l-1.9-4.6c-0.1-0.2,0-0.4,0.2-0.4c0.2-0.1,0.4,0,0.4,0.2l1.9,4.6
		c0.1,0.2,0,0.4-0.2,0.4C32.1,13.4,32.1,13.4,32.1,13.4"/>
	<path class="st0" d="M32.7,16.4c-1,0-1.9-0.8-1.9-1.9s0.8-1.9,1.9-1.9c1.1,0,1.9,0.8,1.9,1.9S33.7,16.4,32.7,16.4 M32.7,13.3
		c-0.7,0-1.2,0.5-1.2,1.2s0.5,1.2,1.2,1.2s1.2-0.5,1.2-1.2S33.3,13.3,32.7,13.3"/>
	<path class="st0" d="M29.6,23.9c-1,0-1.9-0.8-1.9-1.9c0-1,0.8-1.9,1.9-1.9c1,0,1.9,0.8,1.9,1.9C31.4,23,30.6,23.9,29.6,23.9
		 M29.6,20.8c-0.7,0-1.2,0.5-1.2,1.2s0.5,1.2,1.2,1.2s1.2-0.5,1.2-1.2C30.8,21.3,30.2,20.8,29.6,20.8"/>
	<path class="st0" d="M22.1,27c-1,0-1.9-0.8-1.9-1.9c0-1,0.8-1.9,1.9-1.9c1,0,1.9,0.8,1.9,1.9C24,26.1,23.1,27,22.1,27 M22.1,23.9
		c-0.7,0-1.2,0.5-1.2,1.2s0.5,1.2,1.2,1.2s1.2-0.5,1.2-1.2C23.3,24.4,22.8,23.9,22.1,23.9"/>
	<path class="st0" d="M14.6,23.9c-1,0-1.9-0.8-1.9-1.9c0-1,0.8-1.9,1.9-1.9s1.9,0.8,1.9,1.9C16.5,23,15.7,23.9,14.6,23.9 M14.6,20.8
		c-0.7,0-1.2,0.5-1.2,1.2s0.5,1.2,1.2,1.2s1.2-0.5,1.2-1.2S15.3,20.8,14.6,20.8"/>
	<path class="st0" d="M11.5,16.4c-1,0-1.9-0.8-1.9-1.9s0.8-1.9,1.9-1.9s1.9,0.8,1.9,1.9S12.6,16.4,11.5,16.4 M11.5,13.3
		c-0.7,0-1.2,0.5-1.2,1.2s0.5,1.2,1.2,1.2s1.2-0.5,1.2-1.2S12.2,13.3,11.5,13.3"/>
	<path class="st0" d="M14.6,8.9c-1,0-1.9-0.8-1.9-1.9s0.8-1.9,1.9-1.9s1.9,0.8,1.9,1.9S15.7,8.9,14.6,8.9 M14.6,5.9
		c-0.7,0-1.2,0.5-1.2,1.2s0.5,1.2,1.2,1.2s1.2-0.5,1.2-1.2S15.3,5.9,14.6,5.9"/>
	<path class="st0" d="M22.1,5.8c-1,0-1.9-0.8-1.9-1.9S21,2,22.1,2c1,0,1.9,0.8,1.9,1.9S23.1,5.8,22.1,5.8 M22.1,2.8
		c-0.7,0-1.2,0.5-1.2,1.2s0.5,1.2,1.2,1.2s1.2-0.5,1.2-1.2C23.3,3.3,22.8,2.8,22.1,2.8"/>
	<path class="st0" d="M29.6,8.9c-1,0-1.9-0.8-1.9-1.9s0.8-1.9,1.9-1.9c1,0,1.9,0.8,1.9,1.9S30.6,8.9,29.6,8.9 M29.6,5.9
		c-0.7,0-1.2,0.5-1.2,1.2s0.5,1.2,1.2,1.2s1.2-0.5,1.2-1.2C30.8,6.4,30.2,5.9,29.6,5.9"/>
</g>
</svg>
